<?xml version="1.0" standalone="no"?>
<!DOCTYPE svg PUBLIC "-//W3C//DTD SVG 20010904//EN"
 "http://www.w3.org/TR/2001/REC-SVG-20010904/DTD/svg10.dtd">
<svg version="1.0" xmlns="http://www.w3.org/2000/svg"
 width="326.000000pt" height="326.000000pt" viewBox="0 0 326.000000 326.000000"
 preserveAspectRatio="xMidYMid meet">
<metadata>
Created by potrace 1.11, written by Peter Selinger 2001-2013
</metadata>
<g transform="translate(0.000000,326.000000) scale(0.100000,-0.100000)"
fill="#000000" stroke="none">
<path d="M962 2232 c-18 -10 -42 -31 -52 -48 -19 -28 -20 -51 -20 -544 0 -480
1 -518 18 -549 37 -68 129 -91 193 -48 62 41 69 70 69 270 l0 177 454 0 454 0
4 -182 c3 -169 5 -186 26 -219 60 -97 196 -89 242 14 18 40 20 70 20 529 0
426 -2 493 -16 528 -32 79 -119 111 -191 70 -53 -29 -70 -62 -81 -153 -13 -99
-40 -154 -108 -216 -84 -77 -121 -86 -354 -86 -194 0 -195 0 -257 29 -112 51
-178 145 -192 271 -10 87 -33 131 -81 156 -43 23 -85 24 -128 1z"/>
<path d="M621 2023 c-19 -10 -44 -31 -55 -46 -20 -27 -21 -43 -24 -335 -2
-293 -1 -309 18 -340 58 -94 183 -94 240 0 19 31 20 51 20 333 0 280 -1 302
-20 332 -39 65 -117 89 -179 56z"/>
<path d="M2511 2023 c-19 -10 -44 -31 -55 -46 -20 -27 -21 -43 -24 -330 -2
-273 -1 -305 15 -336 39 -74 121 -100 192 -61 69 40 71 49 71 387 0 278 -1
300 -20 330 -39 65 -117 89 -179 56z"/>
</g>
</svg>
